<svg id="Star" xmlns="http://www.w3.org/2000/svg" width="23.528" height="22.357" viewBox="0 0 23.528 22.357">
  <path id="Star-2" data-name="Star" d="M5.6,22.357a1.782,1.782,0,0,1-1.575-.944,1.752,1.752,0,0,1-.19-1.117l1.048-5.871a.049.049,0,0,0-.013-.035L.518,10.2A1.717,1.717,0,0,1,0,8.974,1.807,1.807,0,0,1,.542,7.682a1.945,1.945,0,0,1,.976-.47L7.46,6.353c.023,0,.048-.011.048-.035L10.165.988A1.785,1.785,0,0,1,11.189.094,1.805,1.805,0,0,1,11.762,0a1.784,1.784,0,0,1,1.591.988l2.66,5.342c.011.011.023.023.034.023L22,7.212a1.807,1.807,0,0,1,1.176.682,1.758,1.758,0,0,1-.188,2.318l-4.318,4.177c-.006.006-.009.009-.009.012s0,.006.009.012l1.036,5.895a1.777,1.777,0,0,1-1.471,2.012,1.868,1.868,0,0,1-.279.021,1.755,1.755,0,0,1-.838-.21L11.8,19.354a.088.088,0,0,0-.047.012L6.4,22.165A1.752,1.752,0,0,1,5.6,22.357ZM11.743,1.717h0l-.011.009a.058.058,0,0,0-.024.026L9.047,7.082a1.78,1.78,0,0,1-1.328.976L1.8,8.906l-.072.023a.077.077,0,0,0-.011.048l4.353,4.176a1.78,1.78,0,0,1,.506,1.565L5.542,20.577V20.6a.054.054,0,0,0,.051.04.04.04,0,0,0,.019,0l5.33-2.789a1.814,1.814,0,0,1,.849-.213,1.78,1.78,0,0,1,.821.2L17.906,20.6l.011,0a.1.1,0,0,0,.035.011.018.018,0,0,0,.014-.006h.024l.023-.022-1.037-5.86a1.7,1.7,0,0,1,.507-1.576L21.8,8.965l.012-.025L21.8,8.929h0a.045.045,0,0,1-.016,0,.078.078,0,0,0-.031-.007L15.8,8.058a1.774,1.774,0,0,1-1.328-.976L11.814,1.765a.037.037,0,0,0-.009-.027.038.038,0,0,0-.028-.009l-.011-.012Z" transform="translate(0)" fill="#fa4b4b"/>
</svg>
