<svg id="Home" xmlns="http://www.w3.org/2000/svg" width="20.982" height="22.084" viewBox="0 0 20.982 22.084">
  <path id="Home-2" data-name="Home" d="M16.874,22.084h-2.2A2.012,2.012,0,0,1,12.7,20.219l-.011-.155V16.906a.7.7,0,0,0-.6-.686l-.1-.011H9.043a.7.7,0,0,0-.684.6l-.011.1v3.148a1.169,1.169,0,0,1-.022.2l-.011.023-.013.077a2,2,0,0,1-1.865,1.723l-.144.01H4.317A4.319,4.319,0,0,1,0,18V8.823A3.287,3.287,0,0,1,1.1,6.4L7.984.871A4.013,4.013,0,0,1,12.8.738l.178.133L19.7,6.25A3.325,3.325,0,0,1,20.971,8.6l.011.223v8.955A4.324,4.324,0,0,1,16.874,22.084Zm-8-7.41h3.115a2.248,2.248,0,0,1,2.23,2.066v3.324a.481.481,0,0,0,.387.474h2.053a2.768,2.768,0,0,0,2.771-2.584l.013-.176V8.833a1.79,1.79,0,0,0-.553-1.247l-.143-.122L12.015,2.074a2.46,2.46,0,0,0-1.536-.534A2.493,2.493,0,0,0,9.1,1.952l-.167.122L2.218,7.486a1.715,1.715,0,0,0-.672,1.17l-.013.177v8.945a2.773,2.773,0,0,0,2.608,2.76H6.294a.473.473,0,0,0,.485-.4l.023-.2.012-.057V16.906A2.221,2.221,0,0,1,8.878,14.674Z" transform="translate(0)" fill="#fa4b4b"/>
</svg>
