<svg xmlns="http://www.w3.org/2000/svg" width="20" height="26" viewBox="0 0 20 26">
  <g id="Profile" transform="translate(0.788 0.167)">
    <path id="Profile-2" data-name="Profile" d="M8.345,25.953c-.151,0-.258,0-.355,0l-.18-.007a2.666,2.666,0,0,1-.5-.061,18.556,18.556,0,0,1-2.916-.44l-.319-.07C2.134,24.926.917,24.116.351,22.9A3.945,3.945,0,0,1,0,21.272a3.864,3.864,0,0,1,.359-1.643c.584-1.219,1.969-2.094,4-2.532a20.171,20.171,0,0,1,2.924-.431c.9-.082,1.81-.123,2.712-.123s1.814.041,2.712.123l.576.05a20.753,20.753,0,0,1,2.341.379c2.159.462,3.435,1.273,4.018,2.551a3.923,3.923,0,0,1,0,3.255c-.579,1.272-1.89,2.1-4,2.534l-.585.126a18.923,18.923,0,0,1-2.35.318c-.894.08-1.8.119-2.7.119C9.453,26,8.891,25.985,8.345,25.953Zm-.917-7.41a18.708,18.708,0,0,0-2.7.4,3.978,3.978,0,0,0-2.756,1.519,1.9,1.9,0,0,0-.174.811,1.951,1.951,0,0,0,.173.815c.318.686,1.281,1.209,2.784,1.514l.441.1a18.677,18.677,0,0,0,2.342.324,2.216,2.216,0,0,0,.359.043l.492.008c.537.03,1.082.046,1.62.046.847,0,1.708-.037,2.558-.113a17.283,17.283,0,0,0,2.7-.41l.281-.062a3.439,3.439,0,0,0,2.466-1.44,1.97,1.97,0,0,0,0-1.637c-.306-.67-1.26-1.2-2.761-1.518a18.763,18.763,0,0,0-2.69-.394l-.016,0c-.844-.077-1.7-.116-2.547-.116S8.284,18.465,7.428,18.544ZM3.365,6.936A6.8,6.8,0,0,1,10,0a6.8,6.8,0,0,1,6.64,6.936A6.8,6.8,0,0,1,10,13.872,6.8,6.8,0,0,1,3.365,6.936Zm1.8,0A4.954,4.954,0,0,0,10,11.989a4.955,4.955,0,0,0,4.838-5.053A4.956,4.956,0,0,0,10,1.883,4.955,4.955,0,0,0,5.167,6.936Z" transform="translate(-0.788 -0.167)" fill="#c8c7cc"/>
  </g>
</svg>
