<svg id="Group_681" data-name="Group 681" xmlns="http://www.w3.org/2000/svg" xmlns:xlink="http://www.w3.org/1999/xlink" width="8.108" height="14.808" viewBox="0 0 8.108 14.808">
  <defs>
    <clipPath id="clip-path">
      <path id="ic-chevron-left" d="M2.276,14.433A1.288,1.288,0,1,1,.461,12.606L4.953,7.881a.322.322,0,0,0,0-.425L.319,2.14A1.291,1.291,0,0,1,2.263.441L7.708,6.684a1.558,1.558,0,0,1,0,2.085Z" transform="translate(0 0)"/>
    </clipPath>
  </defs>
  <path id="ic-chevron-left-2" data-name="ic-chevron-left" d="M2.276,14.433A1.288,1.288,0,1,1,.461,12.606L4.953,7.881a.322.322,0,0,0,0-.425L.319,2.14A1.291,1.291,0,0,1,2.263.441L7.708,6.684a1.558,1.558,0,0,1,0,2.085Z" transform="translate(0 0)"/>
  <g id="Mask_Group_220" data-name="Mask Group 220" transform="translate(0 0)" clip-path="url(#clip-path)">
    <g id="_color" data-name="🎨 color" transform="translate(-11.395 -8.029)">
      <rect id="Color_background" data-name="Color background" width="30.893" height="30.893"/>
      <rect id="Fill" width="30.893" height="30.893"/>
    </g>
  </g>
</svg>
