<svg xmlns="http://www.w3.org/2000/svg" width="145.583" height="162.656" viewBox="0 0 145.583 162.656">
  <g id="ic_chef" transform="translate(-114.997 -82.367)">
    <g id="Group_9507" data-name="Group 9507" transform="translate(18.5 -197.677)">
      <path id="chef" d="M100.757,23.212a23.546,23.546,0,0,0-9.521,2.017,28.826,28.826,0,0,0-42.281,0A23.444,23.444,0,1,0,33.5,69.336l5.946,35.174v17.881a1.8,1.8,0,0,0,1.8,1.8h57.7a1.8,1.8,0,0,0,1.8-1.8V104.51L106.7,69.336a23.445,23.445,0,0,0-5.946-46.123Zm-3.606,97.375h-54.1V106.162h54.1Zm7.612-54.5a1.8,1.8,0,0,0-1.416,1.465l-5.917,35H86.465L88.13,79.242h0c0-.043.007-.085.007-.128a1.8,1.8,0,0,0-3.6-.128h0l-1.684,23.57H71.906V82.72a1.8,1.8,0,1,0-3.606,0v19.836H57.355L55.672,78.985h0a1.8,1.8,0,0,0-3.6.128c0,.043,0,.086.007.128h0l1.665,23.314H42.774l-5.917-35a1.8,1.8,0,0,0-1.416-1.465A19.838,19.838,0,1,1,59.283,46.655a1.8,1.8,0,1,0,3.606,0A23.441,23.441,0,0,0,52.236,27.018a25.249,25.249,0,0,1,42.2,11.1,1.8,1.8,0,1,0,3.476-.959,28.611,28.611,0,0,0-4.3-9.015,19.636,19.636,0,0,1,7.142-1.325,19.838,19.838,0,0,1,4.006,39.267Z" transform="translate(94.243 264.045)" fill="#fff"/>
    </g>
    <g id="Foody" transform="translate(-278.293 -244.717)">
      <g id="Group_9531" data-name="Group 9531" transform="translate(394.293 447.717)">
        <path id="Path_304" data-name="Path 304" d="M428.454,449.7a.324.324,0,0,1,.125.25q0,.358-.571.357a2.292,2.292,0,0,1-.33-.036,2.35,2.35,0,0,0-.348-.036q-.839,0-1.694,1.641a47.338,47.338,0,0,0-4.53,16.784q.41-.766,1.088-2.049.2-.393.482-.393.339,0,.339.446a1.284,1.284,0,0,1-.125.5,27.512,27.512,0,0,0-1.445,5.333q-.162.766-.7.767a3.733,3.733,0,0,1-1.837-.928,1.941,1.941,0,0,1-.678-.713,2.27,2.27,0,0,1,.018-1.034q.642-3.87,1.659-8.722a38.384,38.384,0,0,1,1.712-6.546,62.476,62.476,0,0,0-4.6,6.493q-2.675,4.209-4.673,8.009a6.027,6.027,0,0,1,.357,1.658q0,.7-1.177,1.784-.607.571-.8.571t-1.052-1.427a2.033,2.033,0,0,1-.375-.963,3.992,3.992,0,0,1,.517-1.213,58.825,58.825,0,0,0-4.156-10.346q-1.926,4.854-3.906,8.845,1.284,1.445,1.284,1.944,0,.393-.892.5a4.449,4.449,0,0,0-3.139,1.926q-.108.552-.535.553a3.677,3.677,0,0,1-1.872-1.088q-.393-.338-.393-.553,0-.2.324-.482a22.168,22.168,0,0,1,2.729-2,60.467,60.467,0,0,0,5.4-11.6q-2.177-4.78-5.4-6.671a1.985,1.985,0,0,0-1.017-.324,2.168,2.168,0,0,0-1.427.7q-.7.749-1.391,1.516a1.1,1.1,0,0,1-.8.446.284.284,0,0,1-.324-.324.864.864,0,0,1,.108-.375q2.408-4.833,4.6-4.746,2.6.09,6.76,6.457a10.578,10.578,0,0,0,1.017-4.192q0-.963.285-.963a3.426,3.426,0,0,1,1.249.767,1.186,1.186,0,0,1,.27.963,29.719,29.719,0,0,1-1.658,5.4,75.161,75.161,0,0,1,4.762,11.13,124.105,124.105,0,0,1,11.326-16.32,19.224,19.224,0,0,1,1.534-2.818,1.124,1.124,0,0,1,.945-.607Q426.332,447.987,428.454,449.7Z" transform="translate(-394.293 -447.899)" fill="#fff"/>
        <path id="Path_305" data-name="Path 305" d="M486.972,481.384a125.966,125.966,0,0,1-4.655,17.105q-4.209,11.023-9.667,11.023-3.193,0-6.867-3.478a.884.884,0,0,1-.324-.642q0-.536.5-.535a.738.738,0,0,1,.482.2q2.907,2.481,5.19,2.481,4.192,0,7.616-6.992a65.555,65.555,0,0,0,4.692-14.7q.124-.66.41-2.016a64.4,64.4,0,0,1-4.191,6.011,27.66,27.66,0,0,1-3.514,3.924,2.067,2.067,0,0,1-1.142.589,1,1,0,0,1-.7-.375q-.374-.482-.767-.945a.637.637,0,0,1-.178-.393V492.6q.036-.216.324-.3a14.257,14.257,0,0,0,1.605-5.012,54.018,54.018,0,0,0,.785-5.761q.036-.642-.162-.642a6.722,6.722,0,0,0-.838.642,8.962,8.962,0,0,1-1.356,1.052.221.221,0,0,1-.25-.25.383.383,0,0,1,.108-.249q.3-.378,1.355-1.873.945-1.338,1.266-1.338a1.653,1.653,0,0,1,.677.216q.91-.142,1.017-.143.606,0,.607.928a39.25,39.25,0,0,1-.892,6.074,36.267,36.267,0,0,1-1.463,5.841,27.349,27.349,0,0,0,4.638-5.529,27.754,27.754,0,0,0,3.46-6.047q.036-1.2.517-1.2a3.246,3.246,0,0,1,1.391.767Q487.222,480.207,486.972,481.384Z" transform="translate(-442.476 -468.81)" fill="#fff"/>
        <path id="Path_306" data-name="Path 306" d="M592.005,474.453q-1.57,2.765-2.854,2.853a2.826,2.826,0,0,1-1.873-.874,84.173,84.173,0,0,1-12.967-14.644q-.607,2.123-2.087,5.886-1.356,3.425-2.069,4.854-.393.785-.785.785a1,1,0,0,1-.535-.232q-1.159-.874-1.159-1.445a2.357,2.357,0,0,1,.216-.856,23.034,23.034,0,0,0,.981-2.783q.018-.445.036-.874a.4.4,0,0,1,.3-.375q.231-.054,1.017,1.142,1.356-2.871,3.033-7.563a5.887,5.887,0,0,1-.963-1.82q0-.41,1.694-.553.749-2.176,1.641-5.565a36.4,36.4,0,0,0-4.352,1.89,10.825,10.825,0,0,0-3.46,2.836,2.461,2.461,0,0,0-.536,1.569,11.045,11.045,0,0,0,.678,2.729q.2.589-.339.588a.672.672,0,0,1-.571-.357,15.7,15.7,0,0,1-1.641-3.157,5.537,5.537,0,0,1-.428-1.427A3.123,3.123,0,0,1,566.251,455a24.867,24.867,0,0,1,9.793-5.19,6.763,6.763,0,0,0,.27-1.266q.143-.856.428-.82.338.054,1.088,1.463a24.449,24.449,0,0,1,5.119-.91q1.606.108,2.481,2.265a5.7,5.7,0,0,1,1.427,1.284,3.085,3.085,0,0,1,.482,1.82q0,1.98-2.427,4.995-2.481,3.086-4.261,3.085a3.694,3.694,0,0,1-1.82-.464l-1.284-.856a.452.452,0,0,1-.25-.375q0-.464.588-.464a2.631,2.631,0,0,1,.607.151,2.684,2.684,0,0,0,.82.152q1.766,0,4-2.872,2.015-2.568,2.016-4.261,0-2.049-2.854-2.049a14.372,14.372,0,0,0-5.262,1.142,70.356,70.356,0,0,1-2,7.011,86.751,86.751,0,0,0,7.982,10.175q4.8,5.244,6.546,5.369a2.2,2.2,0,0,0,1.5-.535.96.96,0,0,1,.589-.27q.357,0,.357.339A1.092,1.092,0,0,1,592.005,474.453Z" transform="translate(-509.86 -447.717)" fill="#fff"/>
        <path id="Path_307" data-name="Path 307" d="M649.295,488.153q-4.334,5.548-6.1,5.547a3.607,3.607,0,0,1-2.123-1.159q-1.338-.624-1.338-1.677a2.507,2.507,0,0,1,.036-.41,29.67,29.67,0,0,1,1.3-5.4q-.66-.339-.66-.642,0-.25.375-.25a1.257,1.257,0,0,1,.589.162,22.41,22.41,0,0,1,2.853-5.066q.821-1,1.481-1a5.745,5.745,0,0,1,1.5.517q-.089-.535.3-.624h.838q.767,0,.767.27a2.289,2.289,0,0,1-.054.3,2.208,2.208,0,0,0-.054.464q0,.642.018,1.588t.02,1.265a3.557,3.557,0,0,1-1.212,3.086,4.147,4.147,0,0,1-2.5.8,12.4,12.4,0,0,1-2.427-.393,9.831,9.831,0,0,0-.678,2.157,13.981,13.981,0,0,0-.464,3.6q.017.928.589.928a1.927,1.927,0,0,0,.553-.108q2.069-.731,5.761-4.459a.669.669,0,0,1,.464-.232q.339,0,.339.324A.654.654,0,0,1,649.295,488.153Zm-2.087-7.884q0-.7-.3-.7a1.125,1.125,0,0,0-.57.285,11.378,11.378,0,0,0-3.068,4.941q.357.054,1.249.108a2.781,2.781,0,0,0,2.157-.66,2.6,2.6,0,0,0,.588-1.766q-.053.911-.053-2.21Z" transform="translate(-560.471 -468.322)" fill="#fff"/>
        <path id="Path_308" data-name="Path 308" d="M683.806,480.994a10.936,10.936,0,0,1-.767,4.459.629.629,0,0,1-1,.324q-1-.552-1-.91,0-.162.232-.339a7.387,7.387,0,0,0,.553-2.658.729.729,0,0,0-.8-.8,1.2,1.2,0,0,1-.27-.045,1.263,1.263,0,0,0-.285-.044q-.625,0-1.534,1.177a15.315,15.315,0,0,0-1.909,3.674,18.818,18.818,0,0,0-1,3.336,9.5,9.5,0,0,0-.2,1.82q0,2.728,1.73,2.676,1.515-.036,4.441-3.8a.761.761,0,0,1,.517-.339c.154,0,.232.1.232.285a.972.972,0,0,1-.089.357,14.54,14.54,0,0,1-2.481,4.084,1.65,1.65,0,0,1-1.32.446,5.28,5.28,0,0,1-1.391-.232,4.015,4.015,0,0,1-2.622-1.052,3.312,3.312,0,0,1-.981-2.658,18.252,18.252,0,0,1,1.32-5.244,16.854,16.854,0,0,1,2.8-5.28q.678-.749,1.142-.749a4.962,4.962,0,0,1,1.819.785,4.189,4.189,0,0,1,1.445-.27Q683.8,480,683.806,480.994Z" transform="translate(-583.578 -469.223)" fill="#fff"/>
        <path id="Path_309" data-name="Path 309" d="M712.26,469.333a70.994,70.994,0,0,1-2.23,8.009,12.23,12.23,0,0,0,1.427-1.694.335.335,0,0,1,.25-.162q.285,0,.071.5-.089.2-1.5,2.444a17.729,17.729,0,0,0-1.569,3.033.588.588,0,0,1-.589.41,2.607,2.607,0,0,1-1.159-.41q-.464-.25-.464-.375a1.385,1.385,0,0,1,.2-.464,29.39,29.39,0,0,0,2.141-5.672,31.447,31.447,0,0,0,1.266-5.725q.054-.8-.162-.8-.162,0-.57.393l-1.106,1.034q-.588.535-.589.054a.65.65,0,0,1,.162-.357,25.161,25.161,0,0,1,1.783-2.229.793.793,0,0,1,.553-.3,1.721,1.721,0,0,1,.838.392,7.365,7.365,0,0,1,.91.27,1,1,0,0,1,.41.928A4.355,4.355,0,0,1,712.26,469.333Zm2.515-7.812a.6.6,0,0,1,.285.482q0,.518-1.534,1.606a2.515,2.515,0,0,1-1.962.5,2.328,2.328,0,0,1-.928-.393.792.792,0,0,1-.187-.223.2.2,0,0,1-.026-.187c.036-.047.108-.059.216-.036a21.862,21.862,0,0,0,2.157-2.049q.411-.464.588-.464a3.7,3.7,0,0,1,1.391.765Z" transform="translate(-605.676 -456.545)" fill="#fff"/>
        <path id="Path_310" data-name="Path 310" d="M737.849,474.847a21.873,21.873,0,0,1-1.587,6.475,12.736,12.736,0,0,1-2.535,4.406,2.139,2.139,0,0,1-1.445.66,6.108,6.108,0,0,1-2.729-1.32q-.374-.25-.374-.517,0-.339.482-.339a2,2,0,0,1,.571.125,2.007,2.007,0,0,0,.607.125,2.873,2.873,0,0,0,2.336-1.659,18.408,18.408,0,0,0,1.659-3.835,14.726,14.726,0,0,0,.82-5.155q-.054-1.034-.7-1.034a2.268,2.268,0,0,0-1.391.785,30.257,30.257,0,0,0-8.134,13.217,46.882,46.882,0,0,0-1.783,8.1q-.018.125-.482,6.189-.071.874-.428.874-.374,0-1.337-.874a1.637,1.637,0,0,1-.535-1.57,91.479,91.479,0,0,1,4.3-19.781q2.764-8.526,4.388-11.059.963-1.48,1.712-1.445a7.664,7.664,0,0,1,2.854,1.338q.284.179.285.378,0,.27-.428.27a2.329,2.329,0,0,1-.357-.045,2.355,2.355,0,0,0-.375-.045q-1.124,0-2.337,1.909a25.25,25.25,0,0,0-1.8,3.656,39.828,39.828,0,0,0-1.569,4.227,32,32,0,0,1,6.1-7.349,1.559,1.559,0,0,1,.964-.464,5.616,5.616,0,0,1,3.248,3.758Z" transform="translate(-615.383 -460.918)" fill="#fff"/>
        <path id="Path_311" data-name="Path 311" d="M787.408,488.153q-4.334,5.548-6.1,5.547a3.607,3.607,0,0,1-2.123-1.159q-1.338-.624-1.338-1.677a2.494,2.494,0,0,1,.036-.41,29.666,29.666,0,0,1,1.3-5.4q-.66-.339-.66-.642,0-.25.375-.25a1.259,1.259,0,0,1,.589.162,22.374,22.374,0,0,1,2.854-5.066q.82-1,1.481-1a5.74,5.74,0,0,1,1.5.517q-.089-.535.3-.624h.838q.767,0,.767.27a2.22,2.22,0,0,1-.054.3,2.22,2.22,0,0,0-.054.464q0,.642.018,1.588t.018,1.266a3.557,3.557,0,0,1-1.213,3.086,4.147,4.147,0,0,1-2.5.8,12.4,12.4,0,0,1-2.427-.393,9.844,9.844,0,0,0-.678,2.157,13.965,13.965,0,0,0-.463,3.6q.017.928.588.928a1.932,1.932,0,0,0,.554-.108q2.068-.731,5.761-4.459a.669.669,0,0,1,.464-.232q.339,0,.339.324A.655.655,0,0,1,787.408,488.153Zm-2.087-7.884q0-.7-.3-.7a1.126,1.126,0,0,0-.571.285,11.378,11.378,0,0,0-3.068,4.941q.357.054,1.248.108a2.781,2.781,0,0,0,2.157-.66,2.6,2.6,0,0,0,.589-1.766q-.052.912-.052-2.21Z" transform="translate(-653.984 -468.322)" fill="#fff"/>
        <path id="Path_312" data-name="Path 312" d="M812.523,489.27q.054,2.141-2.373,2.925a3.536,3.536,0,0,1-.571,1.035,1.844,1.844,0,0,1-1.213.5,5.033,5.033,0,0,1-1.106-.054q-1.053-.162-2.589-.392a.593.593,0,0,1-.517-.517q.072-.482,1-.571,1.267-.089,3.746-.445a1.834,1.834,0,0,0,1.32-1.052,2.184,2.184,0,0,0,.232-1.052,13.114,13.114,0,0,0-1.123-3.96,10.75,10.75,0,0,1-1.034-3.692q.142-2.23,4.12-3.1.392-.089.393.285,0,.216-.285.339-1.926.839-1.926,2.069a5.215,5.215,0,0,0,.178,1.2q.178.722,1.07,3.469A11.131,11.131,0,0,1,812.523,489.27Zm2.854-10.238a12.375,12.375,0,0,1-.428,2.568,1.717,1.717,0,0,1-.357.785,2.168,2.168,0,0,1-.607.27,3.541,3.541,0,0,1-.82.25q-.27,0-.27-.357a2.5,2.5,0,0,1,.071-.517,7.734,7.734,0,0,0,.33-2.453q-.1-.687.4-.863a3.627,3.627,0,0,1,1.123-.446q.556,0,.555.763Z" transform="translate(-671.796 -468.402)" fill="#fff"/>
      </g>
      <g id="Group_9532" data-name="Group 9532" transform="translate(394.293 447.717)">
        <path id="Path_313" data-name="Path 313" d="M428.454,449.7a.324.324,0,0,1,.125.25q0,.358-.571.357a2.292,2.292,0,0,1-.33-.036,2.35,2.35,0,0,0-.348-.036q-.839,0-1.694,1.641a47.338,47.338,0,0,0-4.53,16.784q.41-.766,1.088-2.049.2-.393.482-.393.339,0,.339.446a1.284,1.284,0,0,1-.125.5,27.512,27.512,0,0,0-1.445,5.333q-.162.766-.7.767a3.733,3.733,0,0,1-1.837-.928,1.941,1.941,0,0,1-.678-.713,2.27,2.27,0,0,1,.018-1.034q.642-3.87,1.659-8.722a38.384,38.384,0,0,1,1.712-6.546,62.476,62.476,0,0,0-4.6,6.493q-2.675,4.209-4.673,8.009a6.027,6.027,0,0,1,.357,1.658q0,.7-1.177,1.784-.607.571-.8.571t-1.052-1.427a2.033,2.033,0,0,1-.375-.963,3.992,3.992,0,0,1,.517-1.213,58.825,58.825,0,0,0-4.156-10.346q-1.926,4.854-3.906,8.845,1.284,1.445,1.284,1.944,0,.393-.892.5a4.449,4.449,0,0,0-3.139,1.926q-.108.552-.535.553a3.677,3.677,0,0,1-1.872-1.088q-.393-.338-.393-.553,0-.2.324-.482a22.168,22.168,0,0,1,2.729-2,60.467,60.467,0,0,0,5.4-11.6q-2.177-4.78-5.4-6.671a1.985,1.985,0,0,0-1.017-.324,2.168,2.168,0,0,0-1.427.7q-.7.749-1.391,1.516a1.1,1.1,0,0,1-.8.446.284.284,0,0,1-.324-.324.864.864,0,0,1,.108-.375q2.408-4.833,4.6-4.746,2.6.09,6.76,6.457a10.578,10.578,0,0,0,1.017-4.192q0-.963.285-.963a3.426,3.426,0,0,1,1.249.767,1.186,1.186,0,0,1,.27.963,29.719,29.719,0,0,1-1.658,5.4,75.161,75.161,0,0,1,4.762,11.13,124.105,124.105,0,0,1,11.326-16.32,19.224,19.224,0,0,1,1.534-2.818,1.124,1.124,0,0,1,.945-.607Q426.332,447.987,428.454,449.7Z" transform="translate(-394.293 -447.899)" fill="none" stroke="#fff" stroke-width="2"/>
        <path id="Path_314" data-name="Path 314" d="M486.972,481.384a125.966,125.966,0,0,1-4.655,17.105q-4.209,11.023-9.667,11.023-3.193,0-6.867-3.478a.884.884,0,0,1-.324-.642q0-.536.5-.535a.738.738,0,0,1,.482.2q2.907,2.481,5.19,2.481,4.192,0,7.616-6.992a65.555,65.555,0,0,0,4.692-14.7q.124-.66.41-2.016a64.4,64.4,0,0,1-4.191,6.011,27.66,27.66,0,0,1-3.514,3.924,2.067,2.067,0,0,1-1.142.589,1,1,0,0,1-.7-.375q-.374-.482-.767-.945a.637.637,0,0,1-.178-.393V492.6q.036-.216.324-.3a14.257,14.257,0,0,0,1.605-5.012,54.018,54.018,0,0,0,.785-5.761q.036-.642-.162-.642a6.722,6.722,0,0,0-.838.642,8.962,8.962,0,0,1-1.356,1.052.221.221,0,0,1-.25-.25.383.383,0,0,1,.108-.249q.3-.378,1.355-1.873.945-1.338,1.266-1.338a1.653,1.653,0,0,1,.677.216q.91-.142,1.017-.143.606,0,.607.928a39.25,39.25,0,0,1-.892,6.074,36.267,36.267,0,0,1-1.463,5.841,27.349,27.349,0,0,0,4.638-5.529,27.754,27.754,0,0,0,3.46-6.047q.036-1.2.517-1.2a3.246,3.246,0,0,1,1.391.767Q487.222,480.207,486.972,481.384Z" transform="translate(-442.476 -468.81)" fill="none" stroke="#fff" stroke-width="2"/>
        <path id="Path_315" data-name="Path 315" d="M592.005,474.453q-1.57,2.765-2.854,2.853a2.826,2.826,0,0,1-1.873-.874,84.173,84.173,0,0,1-12.967-14.644q-.607,2.123-2.087,5.886-1.356,3.425-2.069,4.854-.393.785-.785.785a1,1,0,0,1-.535-.232q-1.159-.874-1.159-1.445a2.357,2.357,0,0,1,.216-.856,23.034,23.034,0,0,0,.981-2.783q.018-.445.036-.874a.4.4,0,0,1,.3-.375q.231-.054,1.017,1.142,1.356-2.871,3.033-7.563a5.887,5.887,0,0,1-.963-1.82q0-.41,1.694-.553.749-2.176,1.641-5.565a36.4,36.4,0,0,0-4.352,1.89,10.825,10.825,0,0,0-3.46,2.836,2.461,2.461,0,0,0-.536,1.569,11.045,11.045,0,0,0,.678,2.729q.2.589-.339.588a.672.672,0,0,1-.571-.357,15.7,15.7,0,0,1-1.641-3.157,5.537,5.537,0,0,1-.428-1.427A3.123,3.123,0,0,1,566.251,455a24.867,24.867,0,0,1,9.793-5.19,6.763,6.763,0,0,0,.27-1.266q.143-.856.428-.82.338.054,1.088,1.463a24.449,24.449,0,0,1,5.119-.91q1.606.108,2.481,2.265a5.7,5.7,0,0,1,1.427,1.284,3.085,3.085,0,0,1,.482,1.82q0,1.98-2.427,4.995-2.481,3.086-4.261,3.085a3.694,3.694,0,0,1-1.82-.464l-1.284-.856a.452.452,0,0,1-.25-.375q0-.464.588-.464a2.631,2.631,0,0,1,.607.151,2.684,2.684,0,0,0,.82.152q1.766,0,4-2.872,2.015-2.568,2.016-4.261,0-2.049-2.854-2.049a14.372,14.372,0,0,0-5.262,1.142,70.356,70.356,0,0,1-2,7.011,86.751,86.751,0,0,0,7.982,10.175q4.8,5.244,6.546,5.369a2.2,2.2,0,0,0,1.5-.535.96.96,0,0,1,.589-.27q.357,0,.357.339A1.092,1.092,0,0,1,592.005,474.453Z" transform="translate(-509.86 -447.717)" fill="none" stroke="#fff" stroke-width="2"/>
        <path id="Path_316" data-name="Path 316" d="M649.295,488.153q-4.334,5.548-6.1,5.547a3.607,3.607,0,0,1-2.123-1.159q-1.338-.624-1.338-1.677a2.507,2.507,0,0,1,.036-.41,29.67,29.67,0,0,1,1.3-5.4q-.66-.339-.66-.642,0-.25.375-.25a1.257,1.257,0,0,1,.589.162,22.41,22.41,0,0,1,2.853-5.066q.821-1,1.481-1a5.745,5.745,0,0,1,1.5.517q-.089-.535.3-.624h.838q.767,0,.767.27a2.289,2.289,0,0,1-.054.3,2.208,2.208,0,0,0-.054.464q0,.642.018,1.588t.02,1.265a3.557,3.557,0,0,1-1.212,3.086,4.147,4.147,0,0,1-2.5.8,12.4,12.4,0,0,1-2.427-.393,9.831,9.831,0,0,0-.678,2.157,13.981,13.981,0,0,0-.464,3.6q.017.928.589.928a1.927,1.927,0,0,0,.553-.108q2.069-.731,5.761-4.459a.669.669,0,0,1,.464-.232q.339,0,.339.324A.654.654,0,0,1,649.295,488.153Zm-2.087-7.884q0-.7-.3-.7a1.125,1.125,0,0,0-.57.285,11.378,11.378,0,0,0-3.068,4.941q.357.054,1.249.108a2.781,2.781,0,0,0,2.157-.66,2.6,2.6,0,0,0,.588-1.766q-.053.911-.053-2.21Z" transform="translate(-560.471 -468.322)" fill="none" stroke="#fff" stroke-width="2"/>
        <path id="Path_317" data-name="Path 317" d="M683.806,480.994a10.936,10.936,0,0,1-.767,4.459.629.629,0,0,1-1,.324q-1-.552-1-.91,0-.162.232-.339a7.387,7.387,0,0,0,.553-2.658.729.729,0,0,0-.8-.8,1.2,1.2,0,0,1-.27-.045,1.263,1.263,0,0,0-.285-.044q-.625,0-1.534,1.177a15.315,15.315,0,0,0-1.909,3.674,18.818,18.818,0,0,0-1,3.336,9.5,9.5,0,0,0-.2,1.82q0,2.728,1.73,2.676,1.515-.036,4.441-3.8a.761.761,0,0,1,.517-.339c.154,0,.232.1.232.285a.972.972,0,0,1-.089.357,14.54,14.54,0,0,1-2.481,4.084,1.65,1.65,0,0,1-1.32.446,5.28,5.28,0,0,1-1.391-.232,4.015,4.015,0,0,1-2.622-1.052,3.312,3.312,0,0,1-.981-2.658,18.252,18.252,0,0,1,1.32-5.244,16.854,16.854,0,0,1,2.8-5.28q.678-.749,1.142-.749a4.962,4.962,0,0,1,1.819.785,4.189,4.189,0,0,1,1.445-.27Q683.8,480,683.806,480.994Z" transform="translate(-583.578 -469.223)" fill="none" stroke="#fff" stroke-width="2"/>
        <path id="Path_318" data-name="Path 318" d="M712.26,469.333a70.994,70.994,0,0,1-2.23,8.009,12.23,12.23,0,0,0,1.427-1.694.335.335,0,0,1,.25-.162q.285,0,.071.5-.089.2-1.5,2.444a17.729,17.729,0,0,0-1.569,3.033.588.588,0,0,1-.589.41,2.607,2.607,0,0,1-1.159-.41q-.464-.25-.464-.375a1.385,1.385,0,0,1,.2-.464,29.39,29.39,0,0,0,2.141-5.672,31.447,31.447,0,0,0,1.266-5.725q.054-.8-.162-.8-.162,0-.57.393l-1.106,1.034q-.588.535-.589.054a.65.65,0,0,1,.162-.357,25.161,25.161,0,0,1,1.783-2.229.793.793,0,0,1,.553-.3,1.721,1.721,0,0,1,.838.392,7.365,7.365,0,0,1,.91.27,1,1,0,0,1,.41.928A4.355,4.355,0,0,1,712.26,469.333Zm2.515-7.812a.6.6,0,0,1,.285.482q0,.518-1.534,1.606a2.515,2.515,0,0,1-1.962.5,2.328,2.328,0,0,1-.928-.393.792.792,0,0,1-.187-.223.2.2,0,0,1-.026-.187c.036-.047.108-.059.216-.036a21.862,21.862,0,0,0,2.157-2.049q.411-.464.588-.464a3.7,3.7,0,0,1,1.391.765Z" transform="translate(-605.676 -456.545)" fill="none" stroke="#fff" stroke-width="2"/>
        <path id="Path_319" data-name="Path 319" d="M737.849,474.847a21.873,21.873,0,0,1-1.587,6.475,12.736,12.736,0,0,1-2.535,4.406,2.139,2.139,0,0,1-1.445.66,6.108,6.108,0,0,1-2.729-1.32q-.374-.25-.374-.517,0-.339.482-.339a2,2,0,0,1,.571.125,2.007,2.007,0,0,0,.607.125,2.873,2.873,0,0,0,2.336-1.659,18.408,18.408,0,0,0,1.659-3.835,14.726,14.726,0,0,0,.82-5.155q-.054-1.034-.7-1.034a2.268,2.268,0,0,0-1.391.785,30.257,30.257,0,0,0-8.134,13.217,46.882,46.882,0,0,0-1.783,8.1q-.018.125-.482,6.189-.071.874-.428.874-.374,0-1.337-.874a1.637,1.637,0,0,1-.535-1.57,91.479,91.479,0,0,1,4.3-19.781q2.764-8.526,4.388-11.059.963-1.48,1.712-1.445a7.664,7.664,0,0,1,2.854,1.338q.284.179.285.378,0,.27-.428.27a2.329,2.329,0,0,1-.357-.045,2.355,2.355,0,0,0-.375-.045q-1.124,0-2.337,1.909a25.25,25.25,0,0,0-1.8,3.656,39.828,39.828,0,0,0-1.569,4.227,32,32,0,0,1,6.1-7.349,1.559,1.559,0,0,1,.964-.464,5.616,5.616,0,0,1,3.248,3.758Z" transform="translate(-615.383 -460.918)" fill="none" stroke="#fff" stroke-width="2"/>
        <path id="Path_320" data-name="Path 320" d="M787.408,488.153q-4.334,5.548-6.1,5.547a3.607,3.607,0,0,1-2.123-1.159q-1.338-.624-1.338-1.677a2.494,2.494,0,0,1,.036-.41,29.666,29.666,0,0,1,1.3-5.4q-.66-.339-.66-.642,0-.25.375-.25a1.259,1.259,0,0,1,.589.162,22.374,22.374,0,0,1,2.854-5.066q.82-1,1.481-1a5.74,5.74,0,0,1,1.5.517q-.089-.535.3-.624h.838q.767,0,.767.27a2.22,2.22,0,0,1-.054.3,2.22,2.22,0,0,0-.054.464q0,.642.018,1.588t.018,1.266a3.557,3.557,0,0,1-1.213,3.086,4.147,4.147,0,0,1-2.5.8,12.4,12.4,0,0,1-2.427-.393,9.844,9.844,0,0,0-.678,2.157,13.965,13.965,0,0,0-.463,3.6q.017.928.588.928a1.932,1.932,0,0,0,.554-.108q2.068-.731,5.761-4.459a.669.669,0,0,1,.464-.232q.339,0,.339.324A.655.655,0,0,1,787.408,488.153Zm-2.087-7.884q0-.7-.3-.7a1.126,1.126,0,0,0-.571.285,11.378,11.378,0,0,0-3.068,4.941q.357.054,1.248.108a2.781,2.781,0,0,0,2.157-.66,2.6,2.6,0,0,0,.589-1.766q-.052.912-.052-2.21Z" transform="translate(-653.984 -468.322)" fill="none" stroke="#fff" stroke-width="2"/>
        <path id="Path_321" data-name="Path 321" d="M812.523,489.27q.054,2.141-2.373,2.925a3.536,3.536,0,0,1-.571,1.035,1.844,1.844,0,0,1-1.213.5,5.033,5.033,0,0,1-1.106-.054q-1.053-.162-2.589-.392a.593.593,0,0,1-.517-.517q.072-.482,1-.571,1.267-.089,3.746-.445a1.834,1.834,0,0,0,1.32-1.052,2.184,2.184,0,0,0,.232-1.052,13.114,13.114,0,0,0-1.123-3.96,10.75,10.75,0,0,1-1.034-3.692q.142-2.23,4.12-3.1.392-.089.393.285,0,.216-.285.339-1.926.839-1.926,2.069a5.215,5.215,0,0,0,.178,1.2q.178.722,1.07,3.469A11.131,11.131,0,0,1,812.523,489.27Zm2.854-10.238a12.375,12.375,0,0,1-.428,2.568,1.717,1.717,0,0,1-.357.785,2.168,2.168,0,0,1-.607.27,3.541,3.541,0,0,1-.82.25q-.27,0-.27-.357a2.5,2.5,0,0,1,.071-.517,7.734,7.734,0,0,0,.33-2.453q-.1-.687.4-.863a3.627,3.627,0,0,1,1.123-.446q.556,0,.555.763Z" transform="translate(-671.796 -468.402)" fill="none" stroke="#fff" stroke-width="2"/>
      </g>
    </g>
  </g>
</svg>
