<svg id="Group_420" data-name="Group 420" xmlns="http://www.w3.org/2000/svg" xmlns:xlink="http://www.w3.org/1999/xlink" width="44.141" height="44.141" viewBox="0 0 44.141 44.141">
  <defs>
    <linearGradient id="linear-gradient" x1="0.5" x2="0.5" y2="1" gradientUnits="objectBoundingBox">
      <stop offset="0" stop-color="#fa4b4b"/>
      <stop offset="1" stop-color="#dc3c46"/>
    </linearGradient>
  </defs>
  <path id="Dubai-Industrial-park-parking-2" d="M20.064,0h4.013A20.064,20.064,0,0,1,44.141,20.064v4.013A20.064,20.064,0,0,1,24.077,44.141H20.064A20.064,20.064,0,0,1,0,24.077V20.064A20.064,20.064,0,0,1,20.064,0Z" transform="translate(0 0)" fill="url(#linear-gradient)"/>
  <g id="_215521" data-name="215521" transform="translate(9.673 9.568)">
    <g id="Group_89" data-name="Group 89" transform="translate(0 0)">
      <path id="Path_21" data-name="Path 21" d="M21.341,3.664A12.5,12.5,0,1,0,3.664,21.341,12.5,12.5,0,0,0,18.339,23.56a.921.921,0,1,0-.861-1.629A10.66,10.66,0,1,1,23.16,12.5a5.842,5.842,0,0,1-1.02,3.7,2.372,2.372,0,0,1-1.829,1c-.927,0-1.865-.738-1.865-2.388V7.64a.922.922,0,1,0-1.845,0v.4a6.326,6.326,0,1,0-4.484,10.786,6.168,6.168,0,0,0,1.814-.266A.922.922,0,1,0,13.4,16.8a4.543,4.543,0,0,1-1.286.19A4.484,4.484,0,1,1,16.6,12.5v2.316c0,2.777,1.865,4.232,3.71,4.232A4.208,4.208,0,0,0,23.6,17.335,7.79,7.79,0,0,0,25.005,12.5,12.414,12.414,0,0,0,21.341,3.664Z" transform="translate(0 0)" fill="#fff"/>
    </g>
  </g>
</svg>
