<svg id="Group_9526" data-name="Group 9526" xmlns="http://www.w3.org/2000/svg" width="20" height="19" viewBox="0 0 20 19">
  <rect id="Rectangle_1524" data-name="Rectangle 1524" width="20" height="19" rx="6" fill="#fa4b4b"/>
  <g id="edit" transform="translate(5.227 4.312)">
    <path id="Path_245" data-name="Path 245" d="M9.625,44.673a.26.26,0,0,0-.26.26v2.306a.78.78,0,0,1-.779.779H1.3a.78.78,0,0,1-.779-.779V40.471a.78.78,0,0,1,.779-.779H3.6a.26.26,0,0,0,0-.519H1.3a1.3,1.3,0,0,0-1.3,1.3v6.768a1.3,1.3,0,0,0,1.3,1.3H8.586a1.3,1.3,0,0,0,1.3-1.3V44.932a.26.26,0,0,0-.26-.26Zm0,0" transform="translate(0 -38.162)" fill="#fff"/>
    <path id="Path_246" data-name="Path 246" d="M115.162.6a1.169,1.169,0,0,0-1.653,0l-4.633,4.633a.26.26,0,0,0-.067.114l-.609,2.2a.26.26,0,0,0,.32.32l2.2-.609a.26.26,0,0,0,.114-.067l4.633-4.633a1.17,1.17,0,0,0,0-1.653Zm-5.72,4.8,3.792-3.792,1.223,1.223-3.792,3.792Zm-.244.49.977.977-1.352.374Zm5.9-3.7-.275.275L113.6,1.246l.276-.275a.649.649,0,0,1,.918,0l.3.3A.65.65,0,0,1,115.1,2.193Zm0,0" transform="translate(-105.38 -0.261)" fill="#fff"/>
  </g>
</svg>
