<svg xmlns="http://www.w3.org/2000/svg" xmlns:xlink="http://www.w3.org/1999/xlink" width="16.36" height="16.356" viewBox="0 0 16.36 16.356">
  <defs>
    <clipPath id="clip-path">
      <path id="Star" d="M14.987,6.992a1.221,1.221,0,0,0,.29-1.223,1.15,1.15,0,0,0-.923-.812l-3.793-.575a.229.229,0,0,1-.172-.13L8.693.665a1.123,1.123,0,0,0-2.051,0l-1.7,3.586a.229.229,0,0,1-.172.13L.979,4.958a1.15,1.15,0,0,0-.923.812,1.221,1.221,0,0,0,.29,1.223L3.091,9.784A.245.245,0,0,1,3.157,10l-.648,3.942A1.211,1.211,0,0,0,2.963,15.1a1.1,1.1,0,0,0,1.2.091L7.56,13.335a.22.22,0,0,1,.213,0L11.166,15.2a1.1,1.1,0,0,0,1.2-.092,1.211,1.211,0,0,0,.455-1.167l-.648-3.942a.245.245,0,0,1,.066-.211Z" transform="translate(0.667)" fill="#fff" stroke="#efeff4" stroke-miterlimit="10" stroke-width="1"/>
    </clipPath>
  </defs>
  <g id="icons_like" data-name="icons/like" transform="translate(-0.153 0.5)">
    <path id="Star-2" data-name="Star" d="M14.987,6.992a1.221,1.221,0,0,0,.29-1.223,1.15,1.15,0,0,0-.923-.812l-3.793-.575a.229.229,0,0,1-.172-.13L8.693.665a1.123,1.123,0,0,0-2.051,0l-1.7,3.586a.229.229,0,0,1-.172.13L.979,4.958a1.15,1.15,0,0,0-.923.812,1.221,1.221,0,0,0,.29,1.223L3.091,9.784A.245.245,0,0,1,3.157,10l-.648,3.942A1.211,1.211,0,0,0,2.963,15.1a1.1,1.1,0,0,0,1.2.091L7.56,13.335a.22.22,0,0,1,.213,0L11.166,15.2a1.1,1.1,0,0,0,1.2-.092,1.211,1.211,0,0,0,.455-1.167l-.648-3.942a.245.245,0,0,1,.066-.211Z" transform="translate(0.667)" fill="#fff" stroke="#efeff4" stroke-miterlimit="10" stroke-width="1"/>
  </g>
</svg>
