<svg id="Group_418" data-name="Group 418" xmlns="http://www.w3.org/2000/svg" xmlns:xlink="http://www.w3.org/1999/xlink" width="45.144" height="45.144" viewBox="0 0 45.144 45.144">
  <defs>
    <linearGradient id="linear-gradient" x1="0.5" x2="0.5" y2="1" gradientUnits="objectBoundingBox">
      <stop offset="0" stop-color="#fa4b4b"/>
      <stop offset="1" stop-color="#dc3c46"/>
    </linearGradient>
  </defs>
  <path id="Dubai-Industrial-park-parking-2" d="M20.064,0H25.08A20.064,20.064,0,0,1,45.144,20.064V25.08A20.064,20.064,0,0,1,25.08,45.144H20.064A20.064,20.064,0,0,1,0,25.08V20.064A20.064,20.064,0,0,1,20.064,0Z" transform="translate(0 0)" fill="url(#linear-gradient)"/>
  <path id="logout" d="M14.586,16.078v1.641A3.208,3.208,0,0,1,11.464,21H3.622A3.208,3.208,0,0,1,.5,17.719V3.281A3.208,3.208,0,0,1,3.622,0h7.843a3.208,3.208,0,0,1,3.122,3.281V4.922a.781.781,0,1,1-1.561,0V3.281a1.6,1.6,0,0,0-1.561-1.641H3.622A1.6,1.6,0,0,0,2.061,3.281V17.719a1.6,1.6,0,0,0,1.561,1.641h7.843a1.6,1.6,0,0,0,1.561-1.641V16.078a.781.781,0,1,1,1.561,0Zm5.32-6.987L18.159,7.254a.754.754,0,0,0-1.1,0,.85.85,0,0,0,0,1.16L18.3,9.721H8.928a.821.821,0,0,0,0,1.641H18.3l-1.243,1.307a.85.85,0,0,0,0,1.16.754.754,0,0,0,1.1,0l1.747-1.837a2.128,2.128,0,0,0,0-2.9Zm0,0" transform="translate(13.948 13)" fill="#fff"/>
</svg>
