<svg id="Group_418" data-name="Group 418" xmlns="http://www.w3.org/2000/svg" xmlns:xlink="http://www.w3.org/1999/xlink" width="45.144" height="45.144" viewBox="0 0 45.144 45.144">
  <defs>
    <linearGradient id="linear-gradient" x1="0.5" x2="0.5" y2="1" gradientUnits="objectBoundingBox">
      <stop offset="0" stop-color="#fa4b4b"/>
      <stop offset="1" stop-color="#dc3c46"/>
    </linearGradient>
  </defs>
  <path id="Dubai-Industrial-park-parking-2" d="M20.064,0H25.08A20.064,20.064,0,0,1,45.144,20.064V25.08A20.064,20.064,0,0,1,25.08,45.144H20.064A20.064,20.064,0,0,1,0,25.08V20.064A20.064,20.064,0,0,1,20.064,0Z" transform="translate(0 0)" fill="url(#linear-gradient)"/>
  <g id="fork" transform="translate(9.473 10.133)">
    <path id="Path_300" data-name="Path 300" d="M71.3,15.734l1.4-.089h.007a3.3,3.3,0,0,0,2.462-1.437l1.109-1.627a6.566,6.566,0,0,0,1.053-4.818,1.482,1.482,0,0,0-1.39-1.232,6.564,6.564,0,0,0-4.657,1.623L69.8,9.449a3.3,3.3,0,0,0-1.132,2.617s0,0,0,.007l.08,1.4a1.975,1.975,0,0,1-.549,1.48l-11.582,11.9A1.683,1.683,0,0,0,56.17,28.1a1.935,1.935,0,0,0,1.961,1.881q.077,0,.154-.006a1.683,1.683,0,0,0,1.188-.6L69.895,16.458a1.976,1.976,0,0,1,1.4-.724Zm-1.961.273L58.917,28.929a.974.974,0,0,1-.689.337,1.222,1.222,0,0,1-1.342-1.19.973.973,0,0,1,.25-.723l11.581-11.9a2.694,2.694,0,0,0,.75-2.019l-.08-1.4a2.591,2.591,0,0,1,.888-2.049l1.483-1.3a5.856,5.856,0,0,1,4.151-1.447.766.766,0,0,1,.718.637,5.853,5.853,0,0,1-.939,4.295L74.58,13.8a2.591,2.591,0,0,1-1.927,1.127l-1.4.089a2.7,2.7,0,0,0-1.915.988Zm0,0" transform="translate(-53.549 -5.743)" fill="#fff" stroke="#fff" stroke-width="0.3"/>
    <path id="Path_301" data-name="Path 301" d="M299.4,294.067l-7.766-7.073a.358.358,0,1,0-.482.529l7.764,7.072a.974.974,0,0,1,.3.708,1.223,1.223,0,0,1-1.268,1.268.973.973,0,0,1-.706-.293l-6.92-7.6a.358.358,0,1,0-.529.482l6.922,7.6a1.683,1.683,0,0,0,1.22.525h.038a1.938,1.938,0,0,0,1.961-2,1.685,1.685,0,0,0-.527-1.222Zm0,0" transform="translate(-276.178 -273.044)" fill="#fff" stroke="#fff" stroke-width="0.3"/>
    <path id="Path_302" data-name="Path 302" d="M4.319,9.924a3.315,3.315,0,0,0,2.167.876h.007l1.406,0a1.974,1.974,0,0,1,1.444.637l.619.68a.358.358,0,1,0,.529-.482l-.62-.681a2.693,2.693,0,0,0-1.97-.87l-1.4,0a2.6,2.6,0,0,1-1.68-.672L.747,4.569A.124.124,0,0,1,.929,4.4L4.637,8.111a.941.941,0,0,0,1.33,0L6.4,7.675h0L7.176,6.9h0l.436-.436a.941.941,0,0,0,0-1.33L3.9,1.427a.124.124,0,0,1,.167-.182L8.913,5.319A2.6,2.6,0,0,1,9.586,7l0,1.4a2.7,2.7,0,0,0,.871,1.971l.663.6a.358.358,0,1,0,.482-.529l-.662-.6A1.976,1.976,0,0,1,10.306,8.4l0-1.406s0-.005,0-.008a3.315,3.315,0,0,0-.876-2.167.358.358,0,0,0-.033-.032L4.531.7A.839.839,0,0,0,3.4,1.934L7.106,5.642a.225.225,0,0,1,0,.317l-.183.183L2.79,2.009a.358.358,0,0,0-.506.506L6.417,6.648l-.268.268L2.016,2.783a.358.358,0,0,0-.506.506L5.643,7.422,5.46,7.6a.225.225,0,0,1-.317,0L1.435,3.9A.839.839,0,0,0,.2,5.03l4.089,4.86a.333.333,0,0,0,.031.033Zm0,0" transform="translate(0)" fill="#fff" stroke="#fff" stroke-width="0.3"/>
  </g>
</svg>
