<svg id="Group_418" data-name="Group 418" xmlns="http://www.w3.org/2000/svg" xmlns:xlink="http://www.w3.org/1999/xlink" width="45.144" height="45.144" viewBox="0 0 45.144 45.144">
  <defs>
    <linearGradient id="linear-gradient" x1="0.5" x2="0.5" y2="1" gradientUnits="objectBoundingBox">
      <stop offset="0" stop-color="#fa4b4b"/>
      <stop offset="1" stop-color="#dc3c46"/>
    </linearGradient>
  </defs>
  <path id="Dubai-Industrial-park-parking-2" d="M20.064,0H25.08A20.064,20.064,0,0,1,45.144,20.064V25.08A20.064,20.064,0,0,1,25.08,45.144H20.064A20.064,20.064,0,0,1,0,25.08V20.064A20.064,20.064,0,0,1,20.064,0Z" transform="translate(0 0)" fill="url(#linear-gradient)"/>
  <g id="_215503" data-name="215503" transform="translate(9.923 10.057)">
    <g id="Group_83" data-name="Group 83" transform="translate(0 3.951)">
      <g id="Group_82" data-name="Group 82" transform="translate(0 0)">
        <path id="Path_17" data-name="Path 17" d="M20.355,92.042c-.282-.3-.575-.591-.863-.868-.144-.139-.288-.282-.431-.426l-1.253-1.253a2.4,2.4,0,0,0-3.6,0c-.128.128-.262.257-.39.385-.3.293-.606.6-.9.914a9.4,9.4,0,0,1-1.695-1.1,17.72,17.72,0,0,1-2.136-2.044.924.924,0,1,0-1.392,1.217,18.889,18.889,0,0,0,2.367,2.27c.005,0,.005.005.01.005a10.148,10.148,0,0,0,2.491,1.525.289.289,0,0,0,.062.021,1.225,1.225,0,0,0,1.356-.308l.036-.036c.349-.4.719-.755,1.109-1.14.134-.128.267-.262.4-.4a.813.813,0,0,1,.5-.277.8.8,0,0,1,.5.277l1.253,1.253c.149.149.3.3.447.442.288.277.555.544.811.816.005.01.015.015.021.021a.591.591,0,0,1-.01.945l-1.566,1.566A1.794,1.794,0,0,1,16.3,96.4a6.274,6.274,0,0,1-2.747-.5,18.224,18.224,0,0,1-5.407-3.251A20.137,20.137,0,0,1,2.9,85.962,9.817,9.817,0,0,1,1.853,82.49,1.961,1.961,0,0,1,2.474,80.8a12.039,12.039,0,0,0,.935-.9c.185-.2.359-.375.544-.544l.005-.005a.62.62,0,0,1,1.006-.015L7.5,81.864l.015.015a.688.688,0,0,1,.241.436A.778.778,0,0,1,7.5,82.8L5.93,84.37A.926.926,0,0,0,7.24,85.679l1.571-1.571a2.5,2.5,0,0,0,.8-1.808,2.432,2.432,0,0,0-.8-1.746L6.279,78.028a2.435,2.435,0,0,0-3.589-.015c-.216.2-.411.406-.606.606a10.378,10.378,0,0,1-.806.781.223.223,0,0,1-.036.031A3.781,3.781,0,0,0,.009,82.608a11.532,11.532,0,0,0,1.222,4.149v.005a22.015,22.015,0,0,0,5.721,7.3A20.152,20.152,0,0,0,12.9,97.629a8.885,8.885,0,0,0,3.055.626c.159,0,.324-.005.488-.021h.005a3.641,3.641,0,0,0,2.321-1.084l1.571-1.571.015-.015A2.428,2.428,0,0,0,20.355,92.042Z" transform="translate(0 -77.231)" fill="#fff"/>
      </g>
    </g>
    <g id="Group_85" data-name="Group 85" transform="translate(11.436 4.991)">
      <g id="Group_84" data-name="Group 84">
        <path id="Path_18" data-name="Path 18" d="M231.265,104.98a9.156,9.156,0,0,0-7.472-7.477.925.925,0,0,0-.313,1.823,7.329,7.329,0,0,1,5.967,5.967.924.924,0,0,0,.909.77.783.783,0,0,0,.154-.015A.925.925,0,0,0,231.265,104.98Z" transform="translate(-222.711 -97.489)" fill="#fff"/>
      </g>
    </g>
    <g id="Group_87" data-name="Group 87" transform="translate(11.668 0)">
      <g id="Group_86" data-name="Group 86">
        <path id="Path_19" data-name="Path 19" d="M240.535,12.545A15.021,15.021,0,0,0,228.293.3a.925.925,0,0,0-.313,1.823,13.154,13.154,0,0,1,10.727,10.727.924.924,0,0,0,.909.77.784.784,0,0,0,.154-.015A.917.917,0,0,0,240.535,12.545Z" transform="translate(-227.211 -0.289)" fill="#fff"/>
      </g>
    </g>
  </g>
</svg>
