<svg xmlns="http://www.w3.org/2000/svg" width="42.965" height="42.814" viewBox="0 0 42.965 42.814">
  <g id="Group_9531" data-name="Group 9531" transform="translate(-285.396 -700.97)">
    <ellipse id="Ellipse_14" data-name="Ellipse 14" cx="21.482" cy="21.407" rx="21.482" ry="21.407" transform="translate(285.396 700.97)" fill="#fa4b4b"/>
    <path id="XMLID_2_" d="M455.278,1019.582a6.536,6.536,0,0,1-.836.3,3.68,3.68,0,0,0,.753-1.319.278.278,0,0,0-.407-.324,6.606,6.606,0,0,1-1.945.766,3.716,3.716,0,0,0-6.31,2.643,3.822,3.822,0,0,0,.03.478,9.511,9.511,0,0,1-6.521-3.448.279.279,0,0,0-.457.036,3.693,3.693,0,0,0,.38,4.257,3.136,3.136,0,0,1-.5-.221.279.279,0,0,0-.414.237c0,.016,0,.032,0,.049a3.709,3.709,0,0,0,1.817,3.181c-.094-.01-.189-.023-.283-.041a.278.278,0,0,0-.318.357,3.7,3.7,0,0,0,2.719,2.479,6.58,6.58,0,0,1-3.509,1,6.851,6.851,0,0,1-.786-.046.278.278,0,0,0-.184.51,10.035,10.035,0,0,0,5.412,1.581,9.646,9.646,0,0,0,7.46-3.265,10.33,10.33,0,0,0,2.585-6.745c0-.1,0-.2,0-.306a7.2,7.2,0,0,0,1.66-1.753.277.277,0,0,0-.018-.333A.267.267,0,0,0,455.278,1019.582Z" transform="translate(-140.163 -302.547)" fill="#fff"/>
  </g>
</svg>
