<svg id="Group_9525" data-name="Group 9525" xmlns="http://www.w3.org/2000/svg" width="20" height="19" viewBox="0 0 20 19">
  <rect id="Rectangle_1525" data-name="Rectangle 1525" width="20" height="19" rx="6" transform="translate(0)" fill="#fa4b4b"/>
  <g id="delete" transform="translate(4.895 3.103)">
    <path id="Path_296" data-name="Path 296" d="M222.686,154.7a.288.288,0,0,0-.288.288v5.446a.288.288,0,1,0,.576,0v-5.446A.288.288,0,0,0,222.686,154.7Zm0,0" transform="translate(-215.99 -150.245)" fill="#fff"/>
    <path id="Path_297" data-name="Path 297" d="M104.686,154.7a.288.288,0,0,0-.288.288v5.446a.288.288,0,1,0,.576,0v-5.446A.288.288,0,0,0,104.686,154.7Zm0,0" transform="translate(-101.39 -150.245)" fill="#fff"/>
    <path id="Path_298" data-name="Path 298" d="M.815,3.661v7.1a1.59,1.59,0,0,0,.423,1.1,1.419,1.419,0,0,0,1.029.445H7.719a1.419,1.419,0,0,0,1.029-.445,1.59,1.59,0,0,0,.423-1.1v-7.1A1.1,1.1,0,0,0,8.888,1.5H7.413v-.36A1.132,1.132,0,0,0,6.272,0H3.714A1.132,1.132,0,0,0,2.573,1.137V1.5H1.1A1.1,1.1,0,0,0,.815,3.661Zm6.9,8.064H2.267a.913.913,0,0,1-.876-.965V3.687h7.2V10.76a.913.913,0,0,1-.876.965ZM3.149,1.137A.555.555,0,0,1,3.714.575H6.272a.555.555,0,0,1,.565.562V1.5H3.149ZM1.1,2.073H8.888a.519.519,0,1,1,0,1.037H1.1a.519.519,0,1,1,0-1.037Zm0,0" transform="translate(0.003 0.002)" fill="#fff"/>
    <path id="Path_299" data-name="Path 299" d="M163.686,154.7a.288.288,0,0,0-.288.288v5.446a.288.288,0,1,0,.576,0v-5.446A.288.288,0,0,0,163.686,154.7Zm0,0" transform="translate(-158.69 -150.245)" fill="#fff"/>
  </g>
</svg>
