<svg xmlns="http://www.w3.org/2000/svg" width="239" height="221.55" viewBox="0 0 239 221.55">
  <g id="undraw_barbecue_3x93" transform="translate(0 -0.006)">
    <ellipse id="Ellipse_16" data-name="Ellipse 16" cx="118.38" cy="7.936" rx="118.38" ry="7.936" transform="translate(0 205.684)" fill="#3f3d56"/>
    <rect id="Rectangle_1" data-name="Rectangle 1" width="3.968" height="2.315" transform="translate(116.396 126.985)" fill="#3f3d56"/>
    <rect id="Rectangle_2" data-name="Rectangle 2" width="3.968" height="2.315" transform="translate(124.332 126.985)" fill="#3f3d56"/>
    <rect id="Rectangle_3" data-name="Rectangle 3" width="3.968" height="2.315" transform="translate(132.268 126.985)" fill="#3f3d56"/>
    <rect id="Rectangle_4" data-name="Rectangle 4" width="3.968" height="2.315" transform="translate(140.204 126.985)" fill="#3f3d56"/>
    <rect id="Rectangle_5" data-name="Rectangle 5" width="3.968" height="2.315" transform="translate(148.14 126.985)" fill="#3f3d56"/>
    <rect id="Rectangle_6" data-name="Rectangle 6" width="3.968" height="2.315" transform="translate(156.076 126.985)" fill="#3f3d56"/>
    <rect id="Rectangle_7" data-name="Rectangle 7" width="3.968" height="2.315" transform="translate(164.012 126.985)" fill="#3f3d56"/>
    <rect id="Rectangle_8" data-name="Rectangle 8" width="3.968" height="2.315" transform="translate(171.949 126.985)" fill="#3f3d56"/>
    <rect id="Rectangle_9" data-name="Rectangle 9" width="3.968" height="2.315" transform="translate(179.885 126.985)" fill="#3f3d56"/>
    <rect id="Rectangle_10" data-name="Rectangle 10" width="3.968" height="2.315" transform="translate(187.821 126.985)" fill="#3f3d56"/>
    <rect id="Rectangle_11" data-name="Rectangle 11" width="3.968" height="2.315" transform="translate(195.757 126.985)" fill="#3f3d56"/>
    <path id="Path_264" data-name="Path 264" d="M287.719,166.5a47.617,47.617,0,0,1-95.233,0Z" transform="translate(-78.901 -38.023)" fill="#3f3d56"/>
    <path id="Path_265" data-name="Path 265" d="M285.418,166.8,255.128,76.514a47.584,47.584,0,0,1,60.288,30c.321.956.612,1.918.87,2.88A47.619,47.619,0,0,1,285.418,166.8Z" transform="translate(-78.901 -38.023)" fill="#3f3d56"/>
    <circle id="Ellipse_17" data-name="Ellipse 17" cx="5.952" cy="5.952" r="5.952" transform="translate(201.709 124.009)" fill="#3f3d56"/>
    <path id="Path_266" data-name="Path 266" d="M226.049,178.9a1.653,1.653,0,0,0,0,3.307h28.438a1.653,1.653,0,0,0,0-3.307Z" transform="translate(-78.901 -38.023)" fill="#fa4b4b"/>
    <path id="Path_267" data-name="Path 267" d="M200.717,214.613l-5.921.219-21.332-45.876,5.4-2.509Z" fill="#3f3d56"/>
    <path id="Path_268" data-name="Path 268" d="M121.687,214.613l5.921.219,21.332-45.876-5.4-2.509Z" fill="#3f3d56"/>
    <rect id="Rectangle_12" data-name="Rectangle 12" width="48.939" height="3.307" transform="translate(136.897 188.159)" fill="#3f3d56"/>
    <path id="Path_269" data-name="Path 269" d="M256.339,74.829a1.488,1.488,0,0,0-1.423,1.923l1.255,4.112a1.488,1.488,0,0,0,2.847-.868l-1.255-4.112a1.491,1.491,0,0,0-1.424-1.054Z" transform="translate(-78.901 -38.023)" fill="#fa4b4b"/>
    <path id="Path_270" data-name="Path 270" d="M190.5,167.323a1.488,1.488,0,0,0,0,2.976h4.3a1.488,1.488,0,0,0,0-2.976Z" transform="translate(-78.901 -38.023)" fill="#fa4b4b"/>
    <path id="Path_271" data-name="Path 271" d="M226.049,156.411H208.193c-.112,0-.222,0-.331.013a4.628,4.628,0,0,0-.01,9.232c.112.01.225.013.341.013h17.856a4.629,4.629,0,1,0,0-9.259Z" transform="translate(-78.901 -38.023)" fill="#ff6584"/>
    <path id="Path_272" data-name="Path 272" d="M206.394,165.3c3.042-.39,5.436-4.229,5.436-8.892h-.661c0,4.56-2.374,8.267-5.291,8.267v.37Z" transform="translate(-78.901 -38.023)" opacity="0.2"/>
    <path id="Path_273" data-name="Path 273" d="M212.822,165.339v-.661c2.917,0,5.291-3.708,5.291-8.267h.661C218.774,161.334,216.1,165.339,212.822,165.339Z" transform="translate(-78.901 -38.023)" opacity="0.2"/>
    <path id="Path_274" data-name="Path 274" d="M219.766,165.339v-.661c2.917,0,5.291-3.708,5.291-8.267h.661C225.718,161.334,223.048,165.339,219.766,165.339Z" transform="translate(-78.901 -38.023)" opacity="0.2"/>
    <path id="Path_275" data-name="Path 275" d="M258.455,156.411H240.6c-.112,0-.222,0-.331.013a4.628,4.628,0,0,0-.01,9.232c.112.01.225.013.341.013h17.856a4.629,4.629,0,1,0,0-9.259Z" transform="translate(-78.901 -38.023)" fill="#ff6584"/>
    <path id="Path_276" data-name="Path 276" d="M238.8,165.3c3.042-.39,5.436-4.229,5.436-8.892h-.661c0,4.56-2.374,8.267-5.291,8.267v.37Z" transform="translate(-78.901 -38.023)" opacity="0.2"/>
    <path id="Path_277" data-name="Path 277" d="M245.228,165.339v-.661c2.917,0,5.291-3.708,5.291-8.267h.661C251.18,161.334,248.51,165.339,245.228,165.339Z" transform="translate(-78.901 -38.023)" opacity="0.2"/>
    <path id="Path_278" data-name="Path 278" d="M252.172,165.339v-.661c2.917,0,5.291-3.708,5.291-8.267h.661C258.124,161.334,255.454,165.339,252.172,165.339Z" transform="translate(-78.901 -38.023)" opacity="0.2"/>
    <path id="Path_279" data-name="Path 279" d="M224.742,111.954c-2.34-1.264-5.233.115-6.4,2.352-1.418,2.722-.243,5.994,1.411,8.321,1.719,2.418,4.052,4.413,5.2,7.207a12.047,12.047,0,0,1-4.7,14.836c-1.076.681-.082,2.4,1,1.713A14.087,14.087,0,0,0,226.28,128a19.657,19.657,0,0,0-2.582-3.649c-1.721-2.037-3.888-4.283-4-7.117a4.48,4.48,0,0,1,.076-1.1,3.86,3.86,0,0,1,.229-.736,3.59,3.59,0,0,1,1.042-1.3,3.172,3.172,0,0,1,1.419-.642,2.128,2.128,0,0,1,1.272.206c1.123.607,2.126-1.105,1-1.713Z" transform="translate(-78.901 -38.023)" fill="#e6e6e6"/>
    <path id="Path_280" data-name="Path 280" d="M254.6,123.956a5.787,5.787,0,0,0-5.789,1.346,3.516,3.516,0,0,0-.94,3.07,6.122,6.122,0,0,0,1.772,3.131c1.611,1.684,3.867,2.773,5.218,4.706a5.906,5.906,0,0,1,1.091,2.8,5.29,5.29,0,0,1-.484,2.647,9.731,9.731,0,0,1-5.119,4.339,1,1,0,0,0-.356,1.357,1.018,1.018,0,0,0,1.357.356c3.883-1.651,7.476-5.348,6.405-9.891-.563-2.39-2.29-4.076-4.15-5.542a23.255,23.255,0,0,1-2.61-2.227,3.463,3.463,0,0,1-1.193-2.541,1.405,1.405,0,0,1,.446-.836,3.845,3.845,0,0,1,.983-.653,3.7,3.7,0,0,1,2.842-.147,1,1,0,0,0,1.22-.693,1.012,1.012,0,0,0-.693-1.22Z" transform="translate(-78.901 -38.023)" fill="#e6e6e6"/>
    <path id="Path_281" data-name="Path 281" d="M239.493,95.733a3.4,3.4,0,0,0-2.115-.814,3.735,3.735,0,0,0-2.059.666,7.09,7.09,0,0,0-2.729,4.088c-1,3.84.305,7.979,2.122,11.361.919,1.71,1.988,3.333,2.913,5.039a22.364,22.364,0,0,1,2.038,5.17,25,25,0,0,1,.246,11.285,18.5,18.5,0,0,1-5.306,9.954.992.992,0,0,0,1.4,1.4,19.412,19.412,0,0,0,5.227-8.6,26.376,26.376,0,0,0,.963-11.208,25.692,25.692,0,0,0-1.272-5.5,30.342,30.342,0,0,0-2.524-5.152c-1.865-3.153-3.85-6.342-4.12-10.1a7.589,7.589,0,0,1,1.24-5.255c-.062.081.05-.059.051-.06q.1-.124.215-.242a4.386,4.386,0,0,1,.456-.424c-.034.027-.122.086.038-.025.079-.055.161-.108.244-.157.068-.04.138-.075.207-.112q.062-.032.125-.059-.145.062.016,0c.078-.024.462-.107.249-.08a2,2,0,0,1,.214-.014c.03,0,.3.013.167,0-.153-.017.121.027.123.028a1.962,1.962,0,0,1,.252.08c-.206-.082.339.224.213.126a1.025,1.025,0,0,0,1.4,0,1,1,0,0,0,0-1.4Z" transform="translate(-78.901 -38.023)" fill="#e6e6e6"/>
    <path id="Path_282" data-name="Path 282" d="M84.416,206.8l-7.479,1.984L63.2,145.29l15.416-1.374Z" fill="#ffb9b9"/>
    <path id="Path_283" data-name="Path 283" d="M50.2,207.777l-7.651,1.156-6.724-64.616,15.474.317Z" fill="#ffb9b9"/>
    <path id="Path_284" data-name="Path 284" d="M125.159,153.855l.706,13.188a3.386,3.386,0,0,1-3.688,3.553h0a3.386,3.386,0,0,1-3.066-3.076l-1.279-14.58-10.074-34.19.305-21.979,11.905.611Z" transform="translate(-78.901 -38.023)" fill="#ffb9b9"/>
    <path id="Path_285" data-name="Path 285" d="M131.569,186.213q-8.945-3.106-20.758-1.221c1.117-13.23,1.764-25.516,1.221-35.411h40.6Z" transform="translate(-78.901 -38.023)" fill="#2f2e41"/>
    <path id="Path_286" data-name="Path 286" d="M159.959,185.908c-6.147,3.251-15.038,4.808-25.337,5.495L121.8,150.5l31.443-.611Z" transform="translate(-78.901 -38.023)" fill="#2f2e41"/>
    <path id="Path_287" data-name="Path 287" d="M175.787,251.462l-22.119.819c-2.833.1-2.983-2.328-2.448-5.113l2.619-7.477c5.9,5.776,6.451,6.1,8.978-2.118l7.713,6.092,5.709.979a3.435,3.435,0,0,1,2.854,3.391h0a3.435,3.435,0,0,1-3.307,3.427Z" transform="translate(-78.901 -38.023)" fill="#2f2e41"/>
    <path id="Path_288" data-name="Path 288" d="M142.286,251.462l-22.119.819c-2.833.1-2.983-2.328-2.448-5.113l2.619-7.477c5.9,5.776,6.451,6.1,8.978-2.118l7.713,6.092,5.709.979a3.435,3.435,0,0,1,2.854,3.391h0a3.435,3.435,0,0,1-3.307,3.427Z" transform="translate(-78.901 -38.023)" fill="#2f2e41"/>
    <circle id="Ellipse_18" data-name="Ellipse 18" cx="11.905" cy="11.905" r="11.905" transform="translate(56.637 2.577)" fill="#ffb9b9"/>
    <path id="Path_289" data-name="Path 289" d="M62.437,35.546,48.395,31.272,57.858,17.23l10.684,4.579Z" fill="#ffb9b9"/>
    <path id="Path_290" data-name="Path 290" d="M154.464,153.244C140.029,156.49,124,155.2,110.2,151.413c3.306-18.433,1.71-38.233-1.526-54.338-2.533-12.605,4.149-23.183,15.263-28.39a30.953,30.953,0,0,1,7.4-1.666,14.406,14.406,0,0,1,15.47,12.94Z" transform="translate(-78.901 -38.023)" fill="#fa4b4b"/>
    <path id="Path_291" data-name="Path 291" d="M38.016,65.157,27.942,63.936l3.053-15.874h7.021Z" fill="#fa4b4b"/>
    <path id="Path_292" data-name="Path 292" d="M147.277,54.391l-1.824-.811a3.118,3.118,0,0,0-4.28,2.064h0l-2.542,4.593-6.331-1,.221-9.722a13.59,13.59,0,0,1,16.407-11.152l.173.039a19.665,19.665,0,0,1,9.2,5.35l3.9,4.438a1.533,1.533,0,0,1-.981,2.536l-5.337.589Z" transform="translate(-78.901 -38.023)" fill="#2f2e41"/>
    <path id="Path_293" data-name="Path 293" d="M186.766,135.583l-6.836,6a.5.5,0,0,1-.654-.746l6.836-6-1.308-1.492-6.836,6a.5.5,0,1,1-.654-.746l6.836-6-1.308-1.492-6.836,6a.5.5,0,1,1-.654-.746l6.836-6-1.635-1.864-9.661,8.474a5.006,5.006,0,0,0-1.065,6.212l-29.167,25.584,2.617,2.983,29.148-25.567a4.848,4.848,0,0,0,6.2-.159l9.778-8.577Z" transform="translate(-78.901 -38.023)" fill="#e6e6e6"/>
    <path id="Path_294" data-name="Path 294" d="M153.549,153.855l.706,13.188a3.386,3.386,0,0,1-3.688,3.553h0a3.386,3.386,0,0,1-3.066-3.076l-1.279-14.58-10.074-34.19.305-21.979,11.905.611Z" transform="translate(-78.901 -38.023)" fill="#ffb9b9"/>
    <path id="Path_295" data-name="Path 295" d="M149.275,100.738c-3.622-3.475-8.4-3.6-13.737-2.137V82.2a7.405,7.405,0,0,1,7.405-7.405h0a6.781,6.781,0,0,1,6.779,6.941Z" transform="translate(-78.901 -38.023)" fill="#fa4b4b"/>
  </g>
</svg>
